<?xml version="1.0" encoding="utf-8" standalone="no"?>
<!DOCTYPE svg PUBLIC "-//W3C//DTD SVG 1.1//EN"
  "http://www.w3.org/Graphics/SVG/1.1/DTD/svg11.dtd">
<svg xmlns:xlink="http://www.w3.org/1999/xlink" width="135.9pt" height="115.2pt" viewBox="0 0 135.9 115.2" xmlns="http://www.w3.org/2000/svg" version="1.1">
 <metadata>
  <rdf:RDF xmlns:dc="http://purl.org/dc/elements/1.1/" xmlns:cc="http://creativecommons.org/ns#" xmlns:rdf="http://www.w3.org/1999/02/22-rdf-syntax-ns#">
   <cc:Work>
    <dc:type rdf:resource="http://purl.org/dc/dcmitype/StillImage"/>
    <dc:date>2026-03-04T18:38:55.471398</dc:date>
    <dc:format>image/svg+xml</dc:format>
    <dc:creator>
     <cc:Agent>
      <dc:title>Matplotlib v3.10.8, https://matplotlib.org/</dc:title>
     </cc:Agent>
    </dc:creator>
   </cc:Work>
  </rdf:RDF>
 </metadata>
 <defs>
  <style type="text/css">*{stroke-linejoin: round; stroke-linecap: butt}</style>
 </defs>
 <g id="figure_1">
  <g id="patch_1">
   <path d="M 0 115.2 
L 135.9 115.2 
L 135.9 -0 
L 0 -0 
z
" style="fill: #ffffff"/>
  </g>
  <g id="axes_1">
   <g id="line2d_1">
    <path d="M 63.406876 23.203549 
L 63.596164 23.342068 
L 63.785451 23.480587 
L 63.974739 23.619105 
L 64.164027 23.757624 
L 64.353315 23.896143 
L 64.542602 24.034661 
L 64.73189 24.17318 
L 64.921178 24.311699 
L 65.110465 24.450217 
L 65.299753 24.588736 
L 65.489041 24.727255 
L 65.678328 24.865774 
L 65.867616 25.004292 
L 66.056904 25.142811 
L 66.246191 25.28133 
L 66.435479 25.419848 
L 66.624767 25.558367 
L 66.814054 25.696886 
L 67.003342 25.835404 
L 67.19263 25.973923 
L 67.381917 26.112442 
L 67.571205 26.25096 
L 67.760493 26.389479 
L 67.94978 26.527998 
L 68.139068 26.666516 
L 68.328356 26.805035 
L 68.517643 26.943554 
L 68.706931 27.082072 
L 68.896219 27.220591 
L 69.085507 27.35911 
L 69.274794 27.497629 
L 69.464082 27.636147 
L 69.65337 27.774666 
L 69.842657 27.913185 
L 70.031945 28.051703 
L 70.221233 28.190222 
L 70.41052 28.328741 
L 70.599808 28.467259 
L 70.789096 28.605778 
L 70.978383 28.744297 
L 71.167671 28.882815 
L 71.356959 29.021334 
L 71.546246 29.159853 
L 71.735534 29.298371 
L 71.924822 29.43689 
L 72.114109 29.575409 
L 72.303397 29.713927 
L 72.492685 29.852446 
L 72.681972 29.990965 
L 72.87126 30.129484 
L 73.060548 30.268002 
L 73.249835 30.406521 
L 73.439123 30.54504 
L 73.628411 30.683558 
L 73.817698 30.822077 
L 74.006986 30.960596 
L 74.196274 31.099114 
L 74.385562 31.237633 
L 74.574849 31.376152 
L 74.764137 31.51467 
L 74.953425 31.653189 
L 75.142712 31.791708 
L 75.332 31.930226 
L 75.521288 32.068745 
L 75.710575 32.207264 
L 75.899863 32.345782 
L 76.089151 32.484301 
L 76.278438 32.62282 
L 76.467726 32.761339 
L 76.657014 32.899857 
L 76.846301 33.038376 
L 77.035589 33.176895 
L 77.224877 33.315413 
L 77.414164 33.453932 
L 77.603452 33.592451 
L 77.79274 33.730969 
L 77.982027 33.869488 
L 78.171315 34.008007 
L 78.360603 34.146525 
L 78.54989 34.285044 
L 78.739178 34.423563 
L 78.928466 34.562081 
L 79.117754 34.7006 
L 79.307041 34.839119 
L 79.496329 34.977637 
L 79.685617 35.116156 
L 79.874904 35.254675 
L 80.064192 35.393194 
L 80.25348 35.531712 
L 80.442767 35.670231 
L 80.632055 35.80875 
L 80.821343 35.947268 
L 81.01063 36.085787 
L 81.199918 36.224306 
L 81.389206 36.362824 
L 81.578493 36.501343 
L 81.767781 36.639862 
L 81.957069 36.77838 
L 82.146356 36.916899 
" clip-path="url(#p9843617b0e)" style="fill: none; stroke: #ff0000; stroke-width: 0.886227"/>
   </g>
   <g id="matplotlib.axis_1">
    <g id="xtick_1">
     <g id="line2d_2">
      <defs>
       <path id="mbd251a7d6f" d="M 0 0 
L 0 3.5 
" style="stroke: #000000; stroke-width: 0.8"/>
      </defs>
      <g>
       <use xlink:href="#mbd251a7d6f" x="63.847024" y="82.227979" style="stroke: #000000; stroke-width: 0.8"/>
      </g>
     </g>
     <g id="text_1">
      <!-- 10 -->
      <g transform="translate(62.271748 97.168632) rotate(-45) scale(0.07 -0.07)">
       <defs>
        <path id="CMR17-31" d="M 1702 4083 
C 1702 4217 1696 4224 1606 4224 
C 1357 3927 979 3833 621 3820 
C 602 3820 570 3820 563 3808 
C 557 3795 557 3782 557 3648 
C 755 3648 1088 3686 1344 3839 
L 1344 467 
C 1344 243 1331 166 781 166 
L 589 166 
L 589 0 
C 896 6 1216 12 1523 12 
C 1830 12 2150 6 2458 0 
L 2458 166 
L 2266 166 
C 1715 166 1702 236 1702 467 
L 1702 4083 
z
" transform="scale(0.015625)"/>
        <path id="CMR17-30" d="M 2688 2038 
C 2688 2430 2682 3099 2413 3613 
C 2176 4063 1798 4224 1466 4224 
C 1158 4224 768 4082 525 3620 
C 269 3137 243 2539 243 2038 
C 243 1671 250 1112 448 623 
C 723 -39 1216 -128 1466 -128 
C 1760 -128 2208 -7 2470 604 
C 2662 1048 2688 1568 2688 2038 
z
M 1466 -26 
C 1056 -26 813 328 723 816 
C 653 1196 653 1749 653 2109 
C 653 2604 653 3015 736 3407 
C 858 3954 1216 4121 1466 4121 
C 1728 4121 2067 3947 2189 3420 
C 2272 3054 2278 2623 2278 2109 
C 2278 1691 2278 1176 2202 797 
C 2067 96 1690 -26 1466 -26 
z
" transform="scale(0.015625)"/>
       </defs>
       <use xlink:href="#CMR17-31" transform="scale(0.996264)"/>
       <use xlink:href="#CMR17-30" transform="translate(45.690477 0) scale(0.996264)"/>
      </g>
     </g>
    </g>
    <g id="xtick_2">
     <g id="line2d_3">
      <g>
       <use xlink:href="#mbd251a7d6f" x="97.601803" y="82.227979" style="stroke: #000000; stroke-width: 0.8"/>
      </g>
     </g>
     <g id="text_2">
      <!-- 20 -->
      <g transform="translate(96.026527 97.168632) rotate(-45) scale(0.07 -0.07)">
       <defs>
        <path id="CMR17-32" d="M 2669 990 
L 2554 990 
C 2490 537 2438 460 2413 422 
C 2381 371 1920 371 1830 371 
L 602 371 
C 832 620 1280 1073 1824 1596 
C 2214 1966 2669 2400 2669 3033 
C 2669 3788 2067 4224 1395 4224 
C 691 4224 262 3603 262 3027 
C 262 2777 448 2745 525 2745 
C 589 2745 781 2783 781 3007 
C 781 3206 614 3264 525 3264 
C 486 3264 448 3257 422 3244 
C 544 3788 915 4057 1306 4057 
C 1862 4057 2227 3616 2227 3033 
C 2227 2477 1901 1998 1536 1583 
L 262 147 
L 262 0 
L 2515 0 
L 2669 990 
z
" transform="scale(0.015625)"/>
       </defs>
       <use xlink:href="#CMR17-32" transform="scale(0.996264)"/>
       <use xlink:href="#CMR17-30" transform="translate(45.690477 0) scale(0.996264)"/>
      </g>
     </g>
    </g>
    <g id="xtick_3">
     <g id="line2d_4">
      <defs>
       <path id="m9628f81fb4" d="M 0 0 
L 0 2 
" style="stroke: #000000; stroke-width: 0.8"/>
      </defs>
      <g>
       <use xlink:href="#m9628f81fb4" x="46.969634" y="82.227979" style="stroke: #000000; stroke-width: 0.8"/>
      </g>
     </g>
    </g>
    <g id="xtick_4">
     <g id="line2d_5">
      <g>
       <use xlink:href="#m9628f81fb4" x="80.724413" y="82.227979" style="stroke: #000000; stroke-width: 0.8"/>
      </g>
     </g>
    </g>
    <g id="xtick_5">
     <g id="line2d_6">
      <g>
       <use xlink:href="#m9628f81fb4" x="114.479192" y="82.227979" style="stroke: #000000; stroke-width: 0.8"/>
      </g>
     </g>
    </g>
   </g>
   <g id="matplotlib.axis_2">
    <g id="ytick_1">
     <g id="line2d_7">
      <defs>
       <path id="m82e397186f" d="M 0 0 
L -3.5 0 
" style="stroke: #000000; stroke-width: 0.8"/>
      </defs>
      <g>
       <use xlink:href="#m82e397186f" x="32.35379" y="71.3557" style="stroke: #000000; stroke-width: 0.8"/>
      </g>
     </g>
     <g id="text_3">
      <!-- -4 -->
      <g transform="translate(20.788703 77.064946) rotate(-45) scale(0.07 -0.07)">
       <defs>
        <path id="CMR17-2d" d="M 1632 1254 
L 1632 1536 
L 26 1536 
L 26 1254 
L 1632 1254 
z
" transform="scale(0.015625)"/>
        <path id="CMR17-34" d="M 2150 4147 
C 2150 4281 2144 4288 2029 4288 
L 128 1254 
L 128 1088 
L 1779 1088 
L 1779 460 
C 1779 230 1766 166 1318 166 
L 1197 166 
L 1197 0 
C 1402 12 1747 12 1965 12 
C 2182 12 2528 12 2733 0 
L 2733 166 
L 2611 166 
C 2163 166 2150 230 2150 460 
L 2150 1088 
L 2803 1088 
L 2803 1254 
L 2150 1254 
L 2150 4147 
z
M 1798 3723 
L 1798 1254 
L 256 1254 
L 1798 3723 
z
" transform="scale(0.015625)"/>
       </defs>
       <use xlink:href="#CMR17-2d" transform="scale(0.996264)"/>
       <use xlink:href="#CMR17-34" transform="translate(30.075966 0) scale(0.996264)"/>
      </g>
     </g>
    </g>
    <g id="ytick_2">
     <g id="line2d_8">
      <g>
       <use xlink:href="#m82e397186f" x="32.35379" y="49.226241" style="stroke: #000000; stroke-width: 0.8"/>
      </g>
     </g>
     <g id="text_4">
      <!-- -2 -->
      <g transform="translate(20.788703 54.935487) rotate(-45) scale(0.07 -0.07)">
       <use xlink:href="#CMR17-2d" transform="scale(0.996264)"/>
       <use xlink:href="#CMR17-32" transform="translate(30.075966 0) scale(0.996264)"/>
      </g>
     </g>
    </g>
    <g id="ytick_3">
     <g id="line2d_9">
      <g>
       <use xlink:href="#m82e397186f" x="32.35379" y="27.096782" style="stroke: #000000; stroke-width: 0.8"/>
      </g>
     </g>
     <g id="text_5">
      <!-- 0 -->
      <g transform="translate(22.686854 30.907876) rotate(-45) scale(0.07 -0.07)">
       <use xlink:href="#CMR17-30" transform="scale(0.996264)"/>
      </g>
     </g>
    </g>
    <g id="ytick_4">
     <g id="line2d_10">
      <defs>
       <path id="m538bbb1fdf" d="M 0 0 
L -2 0 
" style="stroke: #000000; stroke-width: 0.8"/>
      </defs>
      <g>
       <use xlink:href="#m538bbb1fdf" x="32.35379" y="60.29097" style="stroke: #000000; stroke-width: 0.8"/>
      </g>
     </g>
    </g>
    <g id="ytick_5">
     <g id="line2d_11">
      <g>
       <use xlink:href="#m538bbb1fdf" x="32.35379" y="38.161511" style="stroke: #000000; stroke-width: 0.8"/>
      </g>
     </g>
    </g>
    <g id="ytick_6">
     <g id="line2d_12">
      <g>
       <use xlink:href="#m538bbb1fdf" x="32.35379" y="16.032052" style="stroke: #000000; stroke-width: 0.8"/>
      </g>
     </g>
    </g>
   </g>
   <g id="text_6">
    <!-- $ \nu_0 = 0.223 \pm 0.007$ -->
    <g style="fill: #ff0000; opacity: 0.8" transform="translate(48.636439 58.388633) scale(0.08 -0.08)">
     <defs>
      <path id="CMMI12-17" d="M 1408 2751 
C 1408 2777 1389 2816 1338 2816 
C 1293 2816 691 2758 595 2751 
C 525 2745 461 2739 461 2623 
C 461 2559 512 2559 602 2559 
C 902 2559 922 2515 922 2445 
C 922 2419 909 2343 902 2317 
L 339 64 
C 339 38 358 0 403 0 
L 538 0 
C 627 0 1600 230 2349 996 
C 3174 1845 3290 2630 3290 2655 
C 3290 2758 3206 2816 3123 2816 
C 2938 2816 2893 2643 2880 2598 
C 2502 1264 1626 472 774 192 
L 1408 2751 
z
" transform="scale(0.015625)"/>
      <path id="CMR17-3d" d="M 4115 2048 
C 4211 2048 4307 2048 4307 2156 
C 4307 2272 4198 2272 4090 2272 
L 512 2272 
C 403 2272 294 2272 294 2156 
C 294 2048 390 2048 486 2048 
L 4115 2048 
z
M 4090 927 
C 4198 927 4307 927 4307 1043 
C 4307 1152 4211 1152 4115 1152 
L 486 1152 
C 390 1152 294 1152 294 1043 
C 294 927 403 927 512 927 
L 4090 927 
z
" transform="scale(0.015625)"/>
      <path id="CMMI12-3a" d="M 1178 307 
C 1178 492 1024 620 870 620 
C 685 620 557 467 557 313 
C 557 128 710 0 864 0 
C 1050 0 1178 153 1178 307 
z
" transform="scale(0.015625)"/>
      <path id="CMR17-33" d="M 1414 2176 
C 1984 2176 2234 1673 2234 1094 
C 2234 322 1824 25 1453 25 
C 1114 25 563 193 390 691 
C 422 678 454 678 486 678 
C 640 678 755 780 755 947 
C 755 1132 614 1216 486 1216 
C 378 1216 211 1164 211 927 
C 211 335 787 -128 1466 -128 
C 2176 -128 2720 432 2720 1087 
C 2720 1718 2208 2176 1600 2246 
C 2086 2347 2554 2776 2554 3353 
C 2554 3856 2048 4224 1472 4224 
C 890 4224 378 3862 378 3347 
C 378 3123 544 3084 627 3084 
C 762 3084 877 3167 877 3334 
C 877 3500 762 3584 627 3584 
C 602 3584 570 3584 544 3571 
C 730 3999 1235 4076 1459 4076 
C 1683 4076 2106 3966 2106 3347 
C 2106 3167 2080 2851 1862 2574 
C 1670 2329 1453 2316 1242 2297 
C 1210 2297 1062 2284 1037 2284 
C 992 2278 966 2272 966 2227 
C 966 2182 973 2176 1101 2176 
L 1414 2176 
z
" transform="scale(0.015625)"/>
      <path id="CMSY10-6" d="M 2618 1984 
L 4397 1984 
C 4506 1984 4621 1984 4621 2112 
C 4621 2240 4506 2240 4397 2240 
L 2618 2240 
L 2618 4048 
C 2618 4153 2618 4288 2490 4288 
C 2362 4288 2362 4172 2362 4068 
L 2362 2240 
L 576 2240 
C 467 2240 352 2240 352 2112 
C 352 1984 467 1984 576 1984 
L 2362 1984 
L 2362 256 
L 576 256 
C 467 256 352 256 352 128 
C 352 0 467 0 576 0 
L 4397 0 
C 4506 0 4621 0 4621 128 
C 4621 256 4506 256 4397 256 
L 2618 256 
L 2618 1984 
z
" transform="scale(0.015625)"/>
      <path id="CMR17-37" d="M 2886 3955 
L 2886 4096 
L 1382 4096 
C 634 4096 621 4166 595 4288 
L 480 4288 
L 294 3104 
L 410 3104 
C 429 3226 474 3552 550 3673 
C 589 3724 1062 3724 1171 3724 
L 2579 3724 
L 1869 2670 
C 1395 1961 1069 1003 1069 166 
C 1069 89 1069 -128 1299 -128 
C 1530 -128 1530 89 1530 172 
L 1530 466 
C 1530 1514 1709 2204 2003 2644 
L 2886 3955 
z
" transform="scale(0.015625)"/>
     </defs>
     <use xlink:href="#CMMI12-17" transform="scale(0.996264)"/>
     <use xlink:href="#CMR17-30" transform="translate(48.198482 -14.943915) scale(0.697382)"/>
     <use xlink:href="#CMR17-3d" transform="translate(108.353805 0) scale(0.996264)"/>
     <use xlink:href="#CMR17-30" transform="translate(207.742602 0) scale(0.996264)"/>
     <use xlink:href="#CMMI12-3a" transform="translate(253.433079 0) scale(0.996264)"/>
     <use xlink:href="#CMR17-32" transform="translate(280.530256 0) scale(0.996264)"/>
     <use xlink:href="#CMR17-32" transform="translate(326.220734 0) scale(0.996264)"/>
     <use xlink:href="#CMR17-33" transform="translate(371.911211 0) scale(0.996264)"/>
     <use xlink:href="#CMSY10-6" transform="translate(439.740895 0) scale(0.996264)"/>
     <use xlink:href="#CMR17-30" transform="translate(539.367569 0) scale(0.996264)"/>
     <use xlink:href="#CMMI12-3a" transform="translate(585.058046 0) scale(0.996264)"/>
     <use xlink:href="#CMR17-30" transform="translate(612.155224 0) scale(0.996264)"/>
     <use xlink:href="#CMR17-30" transform="translate(657.845701 0) scale(0.996264)"/>
     <use xlink:href="#CMR17-37" transform="translate(703.536178 0) scale(0.996264)"/>
    </g>
   </g>
   <g id="line2d_13">
    <path d="M 38.420902 30.421246 
L 39.320674 30.988792 
L 40.374538 31.587031 
L 41.619799 32.219474 
L 43.105772 32.890269 
L 44.898747 33.60437 
L 47.089506 34.367758 
L 49.805044 35.187742 
L 53.227405 36.073393 
L 57.624998 37.036151 
L 63.406876 38.090732 
L 71.221419 39.256518 
L 82.146356 40.559755 
L 98.081289 42.037244 
L 122.632888 43.742879 
" clip-path="url(#p9843617b0e)" style="fill: none; stroke-dasharray: 3.27904,1.417963; stroke-dashoffset: 0; stroke: #228b22; stroke-width: 0.886227"/>
   </g>
   <g id="PathCollection_1">
    <path d="M 121.126302 47.557003 
L 124.139474 44.543831 
M 121.126302 44.543831 
L 124.139474 47.557003 
" clip-path="url(#p9843617b0e)" style="stroke: #000000; stroke-width: 0.354491"/>
    <path d="M 96.574703 42.132133 
L 99.587874 39.118961 
M 96.574703 39.118961 
L 99.587874 42.132133 
" clip-path="url(#p9843617b0e)" style="stroke: #000000; stroke-width: 0.354491"/>
    <path d="M 80.639771 37.644292 
L 83.652942 34.63112 
M 80.639771 34.63112 
L 83.652942 37.644292 
" clip-path="url(#p9843617b0e)" style="stroke: #000000; stroke-width: 0.354491"/>
    <path d="M 69.714834 30.66994 
L 72.728005 27.656768 
M 69.714834 27.656768 
L 72.728005 30.66994 
" clip-path="url(#p9843617b0e)" style="stroke: #000000; stroke-width: 0.354491"/>
    <path d="M 61.90029 24.708502 
L 64.913462 21.695331 
M 61.90029 21.695331 
L 64.913462 24.708502 
" clip-path="url(#p9843617b0e)" style="stroke: #000000; stroke-width: 0.354491"/>
    <path d="M 56.118412 20.954487 
L 59.131584 17.941315 
M 56.118412 17.941315 
L 59.131584 20.954487 
" clip-path="url(#p9843617b0e)" style="stroke: #000000; stroke-width: 0.354491"/>
    <path d="M 51.72082 18.765398 
L 54.733991 15.752226 
M 51.72082 15.752226 
L 54.733991 18.765398 
" clip-path="url(#p9843617b0e)" style="stroke: #000000; stroke-width: 0.354491"/>
    <path d="M 48.298458 17.364619 
L 51.31163 14.351448 
M 48.298458 14.351448 
L 51.31163 17.364619 
" clip-path="url(#p9843617b0e)" style="stroke: #000000; stroke-width: 0.354491"/>
    <path d="M 45.58292 16.312184 
L 48.596091 13.299013 
M 45.58292 13.299013 
L 48.596091 16.312184 
" clip-path="url(#p9843617b0e)" style="stroke: #000000; stroke-width: 0.354491"/>
    <path d="M 43.392162 15.433913 
L 46.405333 12.420741 
M 43.392162 12.420741 
L 46.405333 15.433913 
" clip-path="url(#p9843617b0e)" style="stroke: #000000; stroke-width: 0.354491"/>
    <path d="M 41.599187 14.658951 
L 44.612358 11.645779 
M 41.599187 11.645779 
L 44.612358 14.658951 
" clip-path="url(#p9843617b0e)" style="stroke: #000000; stroke-width: 0.354491"/>
    <path d="M 40.113213 13.954187 
L 43.126384 10.941016 
M 40.113213 10.941016 
L 43.126384 13.954187 
" clip-path="url(#p9843617b0e)" style="stroke: #000000; stroke-width: 0.354491"/>
    <path d="M 38.867952 13.301988 
L 41.881124 10.288816 
M 38.867952 10.288816 
L 41.881124 13.301988 
" clip-path="url(#p9843617b0e)" style="stroke: #000000; stroke-width: 0.354491"/>
    <path d="M 37.814089 12.69186 
L 40.82726 9.678688 
M 37.814089 9.678688 
L 40.82726 12.69186 
" clip-path="url(#p9843617b0e)" style="stroke: #000000; stroke-width: 0.354491"/>
    <path d="M 36.914317 12.116948 
L 39.927488 9.103777 
M 36.914317 9.103777 
L 39.927488 12.116948 
" clip-path="url(#p9843617b0e)" style="stroke: #000000; stroke-width: 0.354491"/>
   </g>
   <g id="LineCollection_1">
    <path d="M 120.945149 78.817616 
L 124.320627 78.817616 
" clip-path="url(#p9843617b0e)" style="fill: none; stroke: #000000; stroke-width: 0.354491"/>
    <path d="M 96.39355 44.458384 
L 99.769028 44.458384 
" clip-path="url(#p9843617b0e)" style="fill: none; stroke: #000000; stroke-width: 0.354491"/>
    <path d="M 80.458617 36.777563 
L 83.834095 36.777563 
" clip-path="url(#p9843617b0e)" style="fill: none; stroke: #000000; stroke-width: 0.354491"/>
    <path d="M 69.53368 29.393248 
L 72.909158 29.393248 
" clip-path="url(#p9843617b0e)" style="fill: none; stroke: #000000; stroke-width: 0.354491"/>
    <path d="M 61.719137 23.226689 
L 65.094615 23.226689 
" clip-path="url(#p9843617b0e)" style="fill: none; stroke: #000000; stroke-width: 0.354491"/>
    <path d="M 55.937259 19.449936 
L 59.312737 19.449936 
" clip-path="url(#p9843617b0e)" style="fill: none; stroke: #000000; stroke-width: 0.354491"/>
    <path d="M 51.539666 17.258931 
L 54.915144 17.258931 
" clip-path="url(#p9843617b0e)" style="fill: none; stroke: #000000; stroke-width: 0.354491"/>
    <path d="M 48.117305 15.85804 
L 51.492783 15.85804 
" clip-path="url(#p9843617b0e)" style="fill: none; stroke: #000000; stroke-width: 0.354491"/>
    <path d="M 45.401767 14.805599 
L 48.777244 14.805599 
" clip-path="url(#p9843617b0e)" style="fill: none; stroke: #000000; stroke-width: 0.354491"/>
    <path d="M 43.211008 13.927327 
L 46.586486 13.927327 
" clip-path="url(#p9843617b0e)" style="fill: none; stroke: #000000; stroke-width: 0.354491"/>
    <path d="M 41.418034 13.152365 
L 44.793511 13.152365 
" clip-path="url(#p9843617b0e)" style="fill: none; stroke: #000000; stroke-width: 0.354491"/>
    <path d="M 39.93206 12.447601 
L 43.307538 12.447601 
" clip-path="url(#p9843617b0e)" style="fill: none; stroke: #000000; stroke-width: 0.354491"/>
    <path d="M 38.686799 11.795402 
L 42.062277 11.795402 
" clip-path="url(#p9843617b0e)" style="fill: none; stroke: #000000; stroke-width: 0.354491"/>
    <path d="M 37.632935 11.185274 
L 41.008413 11.185274 
" clip-path="url(#p9843617b0e)" style="fill: none; stroke: #000000; stroke-width: 0.354491"/>
    <path d="M 36.733163 10.610363 
L 40.108641 10.610363 
" clip-path="url(#p9843617b0e)" style="fill: none; stroke: #000000; stroke-width: 0.354491"/>
    <path d="M 120.945149 13.283218 
L 124.320627 13.283218 
" clip-path="url(#p9843617b0e)" style="fill: none; stroke: #000000; stroke-width: 0.354491"/>
    <path d="M 96.39355 36.79271 
L 99.769028 36.79271 
" clip-path="url(#p9843617b0e)" style="fill: none; stroke: #000000; stroke-width: 0.354491"/>
    <path d="M 80.458617 35.497849 
L 83.834095 35.497849 
" clip-path="url(#p9843617b0e)" style="fill: none; stroke: #000000; stroke-width: 0.354491"/>
    <path d="M 69.53368 28.93346 
L 72.909158 28.93346 
" clip-path="url(#p9843617b0e)" style="fill: none; stroke: #000000; stroke-width: 0.354491"/>
    <path d="M 61.719137 23.177144 
L 65.094615 23.177144 
" clip-path="url(#p9843617b0e)" style="fill: none; stroke: #000000; stroke-width: 0.354491"/>
    <path d="M 55.937259 19.445866 
L 59.312737 19.445866 
" clip-path="url(#p9843617b0e)" style="fill: none; stroke: #000000; stroke-width: 0.354491"/>
    <path d="M 51.539666 17.258693 
L 54.915144 17.258693 
" clip-path="url(#p9843617b0e)" style="fill: none; stroke: #000000; stroke-width: 0.354491"/>
    <path d="M 48.117305 15.858027 
L 51.492783 15.858027 
" clip-path="url(#p9843617b0e)" style="fill: none; stroke: #000000; stroke-width: 0.354491"/>
    <path d="M 45.401767 14.805598 
L 48.777244 14.805598 
" clip-path="url(#p9843617b0e)" style="fill: none; stroke: #000000; stroke-width: 0.354491"/>
    <path d="M 43.211008 13.927327 
L 46.586486 13.927327 
" clip-path="url(#p9843617b0e)" style="fill: none; stroke: #000000; stroke-width: 0.354491"/>
    <path d="M 41.418034 13.152365 
L 44.793511 13.152365 
" clip-path="url(#p9843617b0e)" style="fill: none; stroke: #000000; stroke-width: 0.354491"/>
    <path d="M 39.93206 12.447601 
L 43.307538 12.447601 
" clip-path="url(#p9843617b0e)" style="fill: none; stroke: #000000; stroke-width: 0.354491"/>
    <path d="M 38.686799 11.795402 
L 42.062277 11.795402 
" clip-path="url(#p9843617b0e)" style="fill: none; stroke: #000000; stroke-width: 0.354491"/>
    <path d="M 37.632935 11.185274 
L 41.008413 11.185274 
" clip-path="url(#p9843617b0e)" style="fill: none; stroke: #000000; stroke-width: 0.354491"/>
    <path d="M 36.733163 10.610363 
L 40.108641 10.610363 
" clip-path="url(#p9843617b0e)" style="fill: none; stroke: #000000; stroke-width: 0.354491"/>
    <path d="M 122.632888 13.283218 
L 122.632888 78.817616 
" clip-path="url(#p9843617b0e)" style="fill: none; stroke: #000000; stroke-width: 0.354491"/>
    <path d="M 98.081289 36.79271 
L 98.081289 44.458384 
" clip-path="url(#p9843617b0e)" style="fill: none; stroke: #000000; stroke-width: 0.354491"/>
    <path d="M 82.146356 35.497849 
L 82.146356 36.777563 
" clip-path="url(#p9843617b0e)" style="fill: none; stroke: #000000; stroke-width: 0.354491"/>
    <path d="M 71.221419 28.93346 
L 71.221419 29.393248 
" clip-path="url(#p9843617b0e)" style="fill: none; stroke: #000000; stroke-width: 0.354491"/>
    <path d="M 63.406876 23.177144 
L 63.406876 23.226689 
" clip-path="url(#p9843617b0e)" style="fill: none; stroke: #000000; stroke-width: 0.354491"/>
    <path d="M 57.624998 19.445866 
L 57.624998 19.449936 
" clip-path="url(#p9843617b0e)" style="fill: none; stroke: #000000; stroke-width: 0.354491"/>
    <path d="M 53.227405 17.258693 
L 53.227405 17.258931 
" clip-path="url(#p9843617b0e)" style="fill: none; stroke: #000000; stroke-width: 0.354491"/>
    <path d="M 49.805044 15.858027 
L 49.805044 15.85804 
" clip-path="url(#p9843617b0e)" style="fill: none; stroke: #000000; stroke-width: 0.354491"/>
    <path d="M 47.089506 14.805598 
L 47.089506 14.805599 
" clip-path="url(#p9843617b0e)" style="fill: none; stroke: #000000; stroke-width: 0.354491"/>
    <path d="M 44.898747 13.927327 
L 44.898747 13.927327 
" clip-path="url(#p9843617b0e)" style="fill: none; stroke: #000000; stroke-width: 0.354491"/>
    <path d="M 43.105772 13.152365 
L 43.105772 13.152365 
" clip-path="url(#p9843617b0e)" style="fill: none; stroke: #000000; stroke-width: 0.354491"/>
    <path d="M 41.619799 12.447601 
L 41.619799 12.447601 
" clip-path="url(#p9843617b0e)" style="fill: none; stroke: #000000; stroke-width: 0.354491"/>
    <path d="M 40.374538 11.795402 
L 40.374538 11.795402 
" clip-path="url(#p9843617b0e)" style="fill: none; stroke: #000000; stroke-width: 0.354491"/>
    <path d="M 39.320674 11.185274 
L 39.320674 11.185274 
" clip-path="url(#p9843617b0e)" style="fill: none; stroke: #000000; stroke-width: 0.354491"/>
    <path d="M 38.420902 10.610363 
L 38.420902 10.610363 
" clip-path="url(#p9843617b0e)" style="fill: none; stroke: #000000; stroke-width: 0.354491"/>
   </g>
   <g id="patch_2">
    <path d="M 32.35379 82.227979 
L 32.35379 7.2 
" style="fill: none; stroke: #000000; stroke-width: 0.8; stroke-linejoin: miter; stroke-linecap: square"/>
   </g>
   <g id="patch_3">
    <path d="M 32.35379 82.227979 
L 128.7 82.227979 
" style="fill: none; stroke: #000000; stroke-width: 0.8; stroke-linejoin: miter; stroke-linecap: square"/>
   </g>
  </g>
  <g id="patch_4">
   <path d="M 32.35379 82.227979 
L 128.7 82.227979 
L 128.7 7.2 
L 32.35379 7.2 
L 32.35379 82.227979 
z
" style="fill: none; stroke: #000000; stroke-width: 0.8; stroke-linejoin: miter"/>
  </g>
  <g id="text_7">
   <!-- $\pi^2/g^2$ -->
   <g transform="translate(69.775511 106.007472) scale(0.08 -0.08)">
    <defs>
     <path id="CMMI12-19" d="M 1658 2406 
L 2381 2406 
C 2208 1691 2099 1225 2099 715 
C 2099 625 2099 -64 2362 -64 
C 2496 -64 2611 57 2611 166 
C 2611 198 2611 210 2566 306 
C 2394 746 2394 1295 2394 1340 
C 2394 1378 2394 1832 2528 2406 
L 3245 2406 
C 3328 2406 3539 2406 3539 2611 
C 3539 2752 3418 2752 3302 2752 
L 1197 2752 
C 1050 2752 832 2752 538 2438 
C 371 2253 166 1915 166 1876 
C 166 1838 198 1825 237 1825 
C 282 1825 288 1844 320 1883 
C 653 2406 986 2406 1146 2406 
L 1510 2406 
C 1370 1927 1210 1372 685 255 
C 634 153 634 140 634 102 
C 634 -32 749 -64 806 -64 
C 992 -64 1043 102 1120 370 
C 1222 695 1222 708 1286 964 
L 1658 2406 
z
" transform="scale(0.015625)"/>
     <path id="CMMI12-3d" d="M 2746 4563 
C 2746 4569 2784 4665 2784 4678 
C 2784 4755 2720 4800 2669 4800 
C 2637 4800 2579 4800 2528 4659 
L 384 -1364 
C 384 -1370 346 -1466 346 -1479 
C 346 -1556 410 -1600 461 -1600 
C 499 -1600 557 -1594 602 -1460 
L 2746 4563 
z
" transform="scale(0.015625)"/>
     <path id="CMMI12-67" d="M 2163 811 
C 2138 708 2125 683 2042 587 
C 1779 249 1510 128 1312 128 
C 1101 128 902 293 902 734 
C 902 1072 1094 1787 1235 2075 
C 1421 2432 1709 2687 1978 2687 
C 2400 2687 2483 2164 2483 2126 
L 2464 2036 
L 2163 811 
z
M 2560 2394 
C 2477 2579 2298 2816 1978 2816 
C 1280 2816 486 1941 486 989 
C 486 325 890 0 1299 0 
C 1638 0 1939 268 2054 396 
L 1914 -176 
C 1824 -520 1786 -677 1555 -896 
C 1293 -1152 1050 -1152 909 -1152 
C 717 -1152 557 -1140 397 -1090 
C 602 -1034 653 -858 653 -789 
C 653 -689 576 -589 435 -589 
C 282 -589 115 -714 115 -921 
C 115 -1178 378 -1280 922 -1280 
C 1747 -1280 2176 -758 2259 -420 
L 2970 2426 
C 2989 2502 2989 2515 2989 2528 
C 2989 2617 2918 2688 2822 2688 
C 2669 2688 2579 2560 2560 2388 
L 2560 2394 
z
" transform="scale(0.015625)"/>
    </defs>
    <use xlink:href="#CMMI12-19" transform="scale(0.996264)"/>
    <use xlink:href="#CMR17-32" transform="translate(58.910601 36.153639) scale(0.697382)"/>
    <use xlink:href="#CMMI12-3d" transform="translate(91.391915 0) scale(0.996264)"/>
    <use xlink:href="#CMMI12-67" transform="translate(140.166833 0) scale(0.996264)"/>
    <use xlink:href="#CMR17-32" transform="translate(190.452323 36.153639) scale(0.697382)"/>
   </g>
  </g>
  <g id="text_8">
   <!-- $log(\sqrt{2} \sigma \pi/g)$ -->
   <g transform="translate(14.1567 68.58037) rotate(-90) scale(0.08 -0.08)">
    <defs>
     <path id="CMMI12-6c" d="M 1626 4255 
C 1632 4281 1645 4319 1645 4351 
C 1645 4416 1581 4416 1568 4416 
C 1562 4416 1331 4396 1216 4383 
C 1107 4377 1011 4364 896 4358 
C 742 4345 698 4339 698 4223 
C 698 4159 762 4159 826 4159 
C 1152 4159 1152 4102 1152 4039 
C 1152 4013 1152 4001 1120 3886 
L 326 731 
C 307 661 294 610 294 509 
C 294 191 531 -64 858 -64 
C 1069 -64 1210 76 1312 273 
C 1421 483 1510 884 1510 909 
C 1510 941 1485 967 1446 967 
C 1389 967 1382 935 1357 839 
C 1242 401 1126 64 870 64 
C 678 64 678 267 678 356 
C 678 382 678 515 723 693 
L 1626 4255 
z
" transform="scale(0.015625)"/>
     <path id="CMMI12-6f" d="M 2918 1755 
C 2918 2362 2522 2816 1939 2816 
C 1094 2816 262 1896 262 996 
C 262 389 659 -64 1242 -64 
C 2093 -64 2918 855 2918 1755 
z
M 1248 64 
C 928 64 691 319 691 766 
C 691 1060 845 1711 1024 2030 
C 1312 2522 1670 2687 1933 2687 
C 2246 2687 2490 2432 2490 1985 
C 2490 1730 2355 1047 2112 657 
C 1850 230 1498 64 1248 64 
z
" transform="scale(0.015625)"/>
     <path id="CMR17-28" d="M 1958 -1562 
C 1958 -1556 1958 -1543 1939 -1524 
C 1645 -1223 858 -403 858 1596 
C 858 3595 1632 4408 1946 4729 
C 1946 4735 1958 4748 1958 4767 
C 1958 4787 1939 4800 1914 4800 
C 1843 4800 1299 4325 986 3620 
C 666 2909 576 2218 576 1603 
C 576 1141 621 360 1005 -467 
C 1312 -1133 1837 -1600 1914 -1600 
C 1946 -1600 1958 -1588 1958 -1562 
z
" transform="scale(0.015625)"/>
     <path id="CMSY10-70" d="M 2490 -5472 
L 1363 -2983 
C 1318 -2880 1286 -2880 1267 -2880 
C 1261 -2880 1229 -2880 1158 -2932 
L 550 -3392 
C 467 -3456 467 -3476 467 -3495 
C 467 -3527 486 -3565 531 -3565 
C 570 -3565 678 -3476 749 -3424 
C 787 -3392 883 -3322 954 -3271 
L 2214 -6042 
C 2259 -6144 2291 -6144 2349 -6144 
C 2445 -6144 2464 -6106 2509 -6016 
L 5414 0 
C 5459 89 5459 115 5459 128 
C 5459 192 5408 256 5331 256 
C 5280 256 5235 224 5184 121 
L 2490 -5472 
z
" transform="scale(0.015625)"/>
     <path id="CMMI12-1b" d="M 3251 2406 
C 3334 2406 3546 2406 3546 2611 
C 3546 2752 3424 2752 3309 2752 
L 1894 2752 
C 934 2752 243 1685 243 932 
C 243 389 595 -64 1171 -64 
C 1926 -64 2752 746 2752 1704 
C 2752 1953 2694 2195 2541 2406 
L 3251 2406 
z
M 1178 64 
C 851 64 614 312 614 753 
C 614 1136 845 2406 1786 2406 
C 2061 2406 2368 2272 2368 1780 
C 2368 1557 2266 1021 2042 651 
C 1811 274 1466 64 1178 64 
z
" transform="scale(0.015625)"/>
     <path id="CMR17-29" d="M 1683 1596 
C 1683 2057 1638 2839 1254 3665 
C 947 4332 422 4800 346 4800 
C 326 4800 301 4793 301 4761 
C 301 4748 307 4742 314 4729 
C 621 4408 1402 3595 1402 1603 
C 1402 -396 627 -1210 314 -1530 
C 307 -1543 301 -1549 301 -1562 
C 301 -1594 326 -1600 346 -1600 
C 416 -1600 960 -1127 1274 -422 
C 1594 289 1683 981 1683 1596 
z
" transform="scale(0.015625)"/>
    </defs>
    <use xlink:href="#CMMI12-6c" transform="scale(0.996264)"/>
    <use xlink:href="#CMMI12-6f" transform="translate(31.248404 0) scale(0.996264)"/>
    <use xlink:href="#CMMI12-67" transform="translate(78.143713 0) scale(0.996264)"/>
    <use xlink:href="#CMR17-28" transform="translate(128.429203 0) scale(0.996264)"/>
    <use xlink:href="#CMSY10-70" transform="translate(163.709971 80.55052) scale(0.996264)"/>
    <use xlink:href="#CMR17-32" transform="translate(246.732225 0) scale(0.996264)"/>
    <use xlink:href="#CMMI12-1b" transform="translate(292.422702 0) scale(0.996264)"/>
    <use xlink:href="#CMMI12-19" transform="translate(351.442756 0) scale(0.996264)"/>
    <use xlink:href="#CMMI12-3d" transform="translate(410.353356 0) scale(0.996264)"/>
    <use xlink:href="#CMMI12-67" transform="translate(459.128275 0) scale(0.996264)"/>
    <use xlink:href="#CMR17-29" transform="translate(509.413765 0) scale(0.996264)"/>
    <path d="M 246.732225 80.55052 
L 292.422702 80.55052 
L 292.422702 84.53547 
L 246.732225 84.53547 
L 246.732225 80.55052 
z
"/>
   </g>
  </g>
 </g>
 <defs>
  <clipPath id="p9843617b0e">
   <rect x="32.35379" y="7.2" width="96.34621" height="75.027979"/>
  </clipPath>
 </defs>
</svg>
